<mxfile host="app.diagrams.net" modified="2023-12-13T06:17:29.939Z" agent="Mozilla/5.0 (Windows NT 10.0; Win64; x64) AppleWebKit/537.36 (KHTML, like Gecko) Chrome/120.0.0.0 Safari/537.36" version="22.1.8" etag="nUJ-g_Y_W52R_pUnJ3UL" type="github">
  <diagram name="Page-1" id="PF58Plbt1evMcU8xHx07">
    <mxGraphModel>
      <root>
        <mxCell id="0" />
        <mxCell id="1" parent="0" />
      </root>
    </mxGraphModel>
  </diagram>
</mxfile>
